<?xml version="1.0" standalone="no"?>
<!DOCTYPE svg PUBLIC "-//W3C//DTD SVG 20010904//EN"
 "http://www.w3.org/TR/2001/REC-SVG-20010904/DTD/svg10.dtd">
<svg version="1.0" xmlns="http://www.w3.org/2000/svg"
 width="1280.000000pt" height="640.000000pt" viewBox="0 0 1280.000000 640.000000"
 preserveAspectRatio="xMidYMid meet">
<metadata>
Created by potrace 1.15, written by Peter Selinger 2001-2017
</metadata>
<g transform="translate(0.000000,640.000000) scale(0.100000,-0.100000)"
fill="#000000" stroke="none">
<path d="M8725 5900 c-153 -21 -283 -66 -338 -118 -47 -44 -85 -106 -89 -142
-2 -29 -8 -35 -33 -40 -74 -16 -127 -65 -178 -166 -28 -56 -57 -157 -57 -200
0 -48 42 -218 56 -230 8 -6 14 -29 14 -50 0 -38 15 -190 25 -247 5 -27 3 -28
-29 -21 -51 9 -52 -14 -10 -173 43 -165 62 -213 80 -213 8 0 14 -3 14 -6 0
-22 53 -234 74 -294 34 -98 68 -154 131 -220 l53 -55 16 -143 c19 -166 20
-267 5 -310 -9 -27 -51 -55 -297 -203 -158 -95 -320 -194 -361 -221 -41 -26
-79 -48 -86 -48 -20 0 -157 -93 -204 -140 -43 -42 -44 -42 -85 -30 -39 12
-126 86 -126 108 0 5 30 22 66 36 147 56 329 193 384 289 77 134 112 326 112
617 0 228 -10 357 -48 598 -99 639 -247 963 -522 1143 -126 82 -261 123 -473
141 -154 13 -390 1 -489 -26 -241 -64 -418 -208 -528 -431 -106 -214 -138
-418 -119 -768 15 -286 -5 -389 -98 -503 -78 -95 -185 -137 -393 -156 l-137
-12 63 -28 c102 -46 175 -61 277 -56 112 5 197 41 282 120 42 40 51 45 35 21
-37 -53 -152 -151 -209 -180 -69 -33 -186 -43 -250 -20 l-43 15 0 -28 c0 -15
14 -54 31 -86 72 -140 206 -221 320 -195 24 6 45 8 47 6 8 -8 -12 -78 -32
-107 -26 -39 -65 -50 -124 -37 -25 5 -46 8 -48 6 -2 -2 18 -28 44 -58 40 -46
42 -51 17 -35 -91 59 -243 145 -332 188 -87 42 -111 59 -171 122 -38 41 -92
110 -121 153 -68 101 -163 295 -196 401 l-27 82 41 46 c68 78 111 192 127 342
6 56 9 62 30 62 35 0 51 23 83 125 43 132 47 167 27 220 -20 51 -76 105 -109
105 -22 0 -23 4 -34 168 -8 101 -21 201 -34 252 -63 248 -199 402 -424 477
-76 26 -90 27 -270 27 -163 -1 -201 -4 -269 -22 -322 -89 -510 -328 -541 -692
-5 -66 4 -211 21 -337 l6 -41 -34 1 c-30 2 -33 -1 -36 -30 -5 -51 74 -324 101
-348 16 -14 28 -46 41 -105 44 -208 111 -357 191 -428 l44 -39 16 -134 c24
-197 24 -313 -1 -344 -15 -20 -394 -252 -813 -497 -43 -25 -99 -71 -137 -110
l-63 -68 -32 47 c-40 58 -73 160 -100 309 l-20 115 64 69 c77 84 179 234 235
346 27 53 48 83 61 87 27 7 51 63 97 219 37 129 39 178 9 178 -13 0 -14 16 -9
103 5 97 8 107 54 197 57 112 78 173 90 255 5 33 18 87 30 119 19 53 20 64 9
110 -10 42 -23 62 -76 114 -59 58 -63 65 -47 76 13 10 16 21 11 45 -15 73 -75
115 -108 75 -20 -24 -68 -46 -88 -39 -28 9 -61 44 -61 65 0 27 53 84 98 106
32 16 34 19 15 22 -12 2 -35 -4 -52 -12 -42 -22 -60 -20 -124 15 -47 25 -60
28 -77 19 -12 -7 -24 -9 -27 -6 -11 11 9 98 28 117 19 19 19 19 -5 19 -40 0
-77 -19 -112 -55 l-32 -35 -36 36 c-34 34 -39 36 -88 32 -29 -2 -60 -6 -68 -9
-11 -3 -16 6 -18 37 -3 35 2 46 27 72 17 17 45 33 62 37 29 6 29 8 14 25 -9
10 -37 23 -63 30 -38 9 -59 8 -120 -6 -97 -23 -129 -46 -166 -119 -17 -33 -38
-60 -46 -60 -9 0 -22 21 -33 58 -10 31 -23 55 -28 52 -12 -8 -12 -62 1 -86 16
-28 -18 -25 -79 7 -46 24 -51 24 -78 10 -39 -19 -101 -89 -109 -121 -3 -14
-10 -25 -14 -25 -12 0 -24 86 -15 100 13 20 -26 -4 -77 -49 -53 -47 -90 -115
-82 -149 4 -12 2 -22 -4 -22 -20 0 -53 54 -73 122 -15 49 -25 66 -32 59 -10
-10 -6 -42 20 -171 l6 -31 -32 18 c-40 23 -57 13 -90 -55 -20 -39 -33 -53 -54
-58 -22 -4 -27 -10 -22 -22 16 -39 17 -54 2 -65 -18 -14 -49 -101 -38 -105 4
-1 -1 -28 -11 -59 -29 -86 -34 -177 -13 -282 10 -50 21 -94 25 -96 5 -3 6 4 3
15 -3 11 -1 20 4 20 6 0 13 -27 17 -61 4 -39 20 -90 44 -143 31 -65 40 -99 46
-164 l6 -82 -24 0 c-40 0 -51 -32 -31 -93 10 -29 30 -98 46 -155 33 -118 54
-156 80 -149 15 4 22 -8 40 -62 45 -137 147 -306 254 -420 l62 -66 -9 -100
c-17 -190 -46 -274 -119 -339 -50 -46 -103 -70 -269 -124 -136 -44 -534 -152
-560 -152 -9 0 -20 -3 -24 -7 -4 -4 -39 -13 -78 -20 -237 -40 -442 -260 -518
-557 -35 -140 -43 -275 -44 -741 l-1 -450 180 -9 c119 -6 670 -3 1630 9 798
11 1729 18 2070 17 341 0 1629 -4 2863 -7 1619 -5 2242 -4 2242 4 0 8 192 11
670 11 440 0 670 3 670 10 0 6 53 10 140 10 87 0 140 -4 140 -10 0 -7 152 -10
435 -10 418 0 435 1 435 19 0 17 19 19 418 25 229 3 526 9 660 12 l242 7 -1
131 c0 72 -4 244 -9 381 -11 347 -35 465 -137 670 -145 293 -337 503 -491 536
-48 10 -404 158 -643 267 -120 54 -168 130 -195 307 -8 50 -14 143 -14 207 l0
117 67 83 c81 101 158 218 207 316 23 45 45 76 59 81 49 19 70 53 133 223 51
137 53 170 12 235 -20 34 -23 48 -19 123 2 64 8 91 22 109 36 45 119 342 119
425 0 35 -8 65 -23 95 -96 178 -417 510 -564 583 -57 28 -75 31 -181 36 -100
4 -125 1 -175 -16 l-57 -21 -14 27 c-8 15 -28 63 -45 108 -31 81 -70 132 -90
119 -15 -9 -13 -55 4 -85 25 -44 16 -43 -35 3 -56 50 -68 54 -201 63 -117 8
-166 1 -174 -27 -12 -36 12 -49 86 -49 60 0 91 -11 76 -26 -3 -3 -52 -12 -108
-21 -171 -25 -269 -67 -269 -115 0 -24 4 -23 68 13 38 21 83 35 141 45 72 12
106 12 90 1 -2 -1 -31 -20 -64 -41 -233 -151 -359 -292 -436 -490 -36 -94
-119 -399 -119 -439 0 -40 24 -76 81 -119 41 -32 51 -46 64 -95 8 -32 22 -71
30 -86 8 -16 15 -41 15 -57 0 -25 -4 -29 -26 -27 -49 4 -51 -17 -15 -200 18
-92 44 -191 57 -220 13 -28 24 -63 24 -76 0 -46 48 -212 88 -306 60 -139 127
-244 216 -338 43 -46 77 -85 75 -88 -13 -12 -86 20 -179 79 -58 36 -165 96
-238 133 -119 59 -140 74 -199 137 -125 135 -247 348 -313 544 l-31 93 41 45
c68 74 111 189 126 334 6 63 9 70 28 70 12 0 30 6 40 13 20 15 86 224 86 274
0 69 -73 163 -126 163 -23 0 -24 3 -24 66 0 37 4 63 9 59 12 -7 47 43 68 97
24 65 21 223 -6 321 -73 265 -210 413 -436 472 -153 40 -394 55 -550 35z
m2099 -339 c-5 -6 -33 31 -33 44 -1 6 8 -1 19 -15 10 -14 17 -27 14 -29z
m-4654 -2738 c-14 -69 -33 -108 -68 -146 l-27 -28 -57 63 c-32 34 -58 63 -58
65 0 2 10 3 23 3 31 0 115 42 157 78 19 17 37 29 38 27 2 -2 -2 -30 -8 -62z"/>
</g>
</svg>
